<svg width="13" height="17" viewBox="0 0 13 17" fill="none" xmlns="http://www.w3.org/2000/svg">
<path d="M8.69021 2.66463C8.69021 3.9982 7.60915 5.07927 6.27558 5.07927C4.94202 5.07927 3.86095 3.9982 3.86095 2.66463C3.86095 1.33107 4.94202 0.25 6.27558 0.25C7.60915 0.25 8.69021 1.33107 8.69021 2.66463Z" fill="#77777C"/>
<path d="M2.85487 6.28648C2.85487 5.6197 3.39541 5.07916 4.06219 5.07916H8.48902C9.1558 5.07916 9.69634 5.6197 9.69634 6.28648V11.1157C9.69634 11.7825 9.1558 12.3231 8.48902 12.3231H4.06219C3.39541 12.3231 2.85487 11.7825 2.85487 11.1157V6.28648Z" fill="#77777C"/>
<path d="M3.86095 12.3229C3.86095 11.8784 4.2213 11.518 4.66582 11.518H5.06826C5.51279 11.518 5.87314 11.8784 5.87314 12.3229V15.9448C5.87314 16.3894 5.51279 16.7497 5.06826 16.7497H4.66582C4.2213 16.7497 3.86095 16.3894 3.86095 15.9448V12.3229Z" fill="#77777C"/>
<path d="M6.67795 12.3229C6.67795 11.8784 7.0383 11.518 7.48283 11.518H7.88527C8.32979 11.518 8.69014 11.8784 8.69014 12.3229V15.9448C8.69014 16.3894 8.32979 16.7497 7.88527 16.7497H7.48283C7.0383 16.7497 6.67795 16.3894 6.67795 15.9448V12.3229Z" fill="#77777C"/>
<path d="M10.4087 7.4546C10.1264 7.93319 9.50961 8.09231 9.03101 7.81V7.81C8.55242 7.52769 8.3933 6.91086 8.67561 6.43227L10.3113 3.65925C10.5936 3.18065 11.2105 3.02153 11.6891 3.30384V3.30384C12.1677 3.58615 12.3268 4.20298 12.0445 4.68157L10.4087 7.4546Z" fill="#77777C"/>
<path d="M2.23563 3.62918C1.933 3.16318 1.30989 3.03073 0.843883 3.33336V3.33336C0.377874 3.63599 0.245429 4.2591 0.548059 4.7251L2.52072 7.76273C2.82335 8.22874 3.44645 8.36118 3.91246 8.05855V8.05855C4.37847 7.75592 4.51091 7.13282 4.20828 6.66681L2.23563 3.62918Z" fill="#77777C"/>
<path d="M5.8731 2.26218C5.8731 2.48444 5.78301 2.66462 5.67188 2.66462C5.56075 2.66462 5.47066 2.48444 5.47066 2.26218C5.47066 2.03992 5.56075 1.85974 5.67188 1.85974C5.78301 1.85974 5.8731 2.03992 5.8731 2.26218Z" fill="white"/>
<path d="M7.08039 2.26218C7.08039 2.48444 6.9903 2.66462 6.87917 2.66462C6.76804 2.66462 6.67795 2.48444 6.67795 2.26218C6.67795 2.03992 6.76804 1.85974 6.87917 1.85974C6.9903 1.85974 7.08039 2.03992 7.08039 2.26218Z" fill="white"/>
<path d="M6.71295 3.46942H5.83869C5.68476 3.46942 5.59522 3.64341 5.68469 3.76867C5.80311 3.93445 5.99429 4.03284 6.19802 4.03284H6.35363C6.55735 4.03284 6.74854 3.93445 6.86695 3.76867C6.95642 3.64341 6.86688 3.46942 6.71295 3.46942Z" fill="white"/>
</svg>
