<svg width="10" height="12" viewBox="0 0 10 12" fill="none" xmlns="http://www.w3.org/2000/svg">
<path d="M6.59354 2.10976C6.59354 2.9988 5.87282 3.71951 4.98378 3.71951C4.09474 3.71951 3.37402 2.9988 3.37402 2.10976C3.37402 1.22071 4.09474 0.5 4.98378 0.5C5.87282 0.5 6.59354 1.22071 6.59354 2.10976Z" fill="#77777C"/>
<path d="M2.70325 4.52436C2.70325 4.07984 3.0636 3.71948 3.50813 3.71948H6.45934C6.90387 3.71948 7.26422 4.07984 7.26422 4.52436V7.74387C7.26422 8.18839 6.90387 8.54875 6.45934 8.54875H3.50813C3.0636 8.54875 2.70325 8.18839 2.70325 7.74387V4.52436Z" fill="#77777C"/>
<path d="M3.37402 8.54855C3.37402 8.2522 3.61426 8.01196 3.91061 8.01196H4.1789C4.47525 8.01196 4.71549 8.2522 4.71549 8.54855V10.9632C4.71549 11.2595 4.47525 11.4998 4.1789 11.4998H3.91061C3.61426 11.4998 3.37402 11.2595 3.37402 10.9632V8.54855Z" fill="#77777C"/>
<path d="M5.25195 8.54855C5.25195 8.2522 5.49219 8.01196 5.78854 8.01196H6.05683C6.35318 8.01196 6.59342 8.2522 6.59342 8.54855V10.9632C6.59342 11.2595 6.35318 11.4998 6.05683 11.4998H5.78854C5.49219 11.4998 5.25195 11.2595 5.25195 10.9632V8.54855Z" fill="#77777C"/>
<path d="M7.73921 5.30315C7.55101 5.62221 7.13979 5.72829 6.82072 5.54008C6.50166 5.35188 6.39558 4.94066 6.58379 4.62159L7.67427 2.77291C7.86248 2.45385 8.2737 2.34777 8.59276 2.53597C8.91182 2.72418 9.0179 3.1354 8.8297 3.45446L7.73921 5.30315Z" fill="#77777C"/>
<path d="M2.29048 2.75271C2.08872 2.44204 1.67332 2.35374 1.36265 2.55549C1.05198 2.75725 0.963678 3.17265 1.16543 3.48332L2.48054 5.5084C2.68229 5.81908 3.09769 5.90737 3.40837 5.70562C3.71904 5.50387 3.80734 5.08846 3.60558 4.77779L2.29048 2.75271Z" fill="#77777C"/>
<path d="M4.71544 1.84153C4.71544 1.98971 4.65538 2.10983 4.58129 2.10983C4.5072 2.10983 4.44714 1.98971 4.44714 1.84153C4.44714 1.69336 4.5072 1.57324 4.58129 1.57324C4.65538 1.57324 4.71544 1.69336 4.71544 1.84153Z" fill="white"/>
<path d="M5.52025 1.84153C5.52025 1.98971 5.46019 2.10983 5.3861 2.10983C5.31201 2.10983 5.25195 1.98971 5.25195 1.84153C5.25195 1.69336 5.31201 1.57324 5.3861 1.57324C5.46019 1.57324 5.52025 1.69336 5.52025 1.84153Z" fill="white"/>
<path d="M5.27539 2.64624H4.69255C4.58993 2.64624 4.53024 2.76223 4.58989 2.84574C4.66883 2.95626 4.79628 3.02185 4.9321 3.02185H5.03584C5.17166 3.02185 5.29912 2.95626 5.37806 2.84574C5.4377 2.76223 5.37801 2.64624 5.27539 2.64624Z" fill="white"/>
</svg>
