<svg width="16" height="16" viewBox="0 0 16 16" fill="none" xmlns="http://www.w3.org/2000/svg">
<path fill-rule="evenodd" clip-rule="evenodd" d="M0 0.413047C0 0.184927 0.184927 0 0.413047 0H2.26036C2.81915 0 3.30881 0.373999 3.45584 0.913102L3.99536 2.89133H14.6881C15.4701 2.89133 16.0566 3.60672 15.9032 4.37349L14.9945 8.917C14.8787 9.49621 14.3701 9.91313 13.7794 9.91313H4.8857C4.77615 9.91313 4.67109 9.95665 4.59363 10.0341C4.43232 10.1954 4.43232 10.4569 4.59363 10.6182C4.67109 10.6957 4.77615 10.7392 4.8857 10.7392H14.4566C14.6848 10.7392 14.8697 10.9242 14.8697 11.1523C14.8697 11.3804 14.6848 11.5653 14.4566 11.5653H4.8857C4.55706 11.5653 4.24188 11.4348 4.00949 11.2024C3.52558 10.7185 3.52558 9.93389 4.00949 9.44997C4.22852 9.23094 4.5211 9.10238 4.82918 9.08832L2.65886 1.13046C2.60985 0.950761 2.44663 0.826094 2.26036 0.826094H0.413047C0.184927 0.826094 0 0.641167 0 0.413047ZM5.6851 9.08704H13.7794C13.9763 9.08704 14.1458 8.94806 14.1844 8.75499L15.0931 4.21148C15.1443 3.95589 14.9488 3.71742 14.6881 3.71742H4.22066L5.6851 9.08704Z" fill="#77777C"/>
<path d="M8.67394 13.7982C8.67394 14.7107 7.93423 15.4504 7.02176 15.4504C6.10928 15.4504 5.36957 14.7107 5.36957 13.7982C5.36957 12.8858 6.10928 12.1461 7.02176 12.1461C7.93423 12.1461 8.67394 12.8858 8.67394 13.7982Z" fill="white"/>
<path fill-rule="evenodd" clip-rule="evenodd" d="M7.02176 14.6243C7.478 14.6243 7.84785 14.2545 7.84785 13.7982C7.84785 13.342 7.478 12.9722 7.02176 12.9722C6.56552 12.9722 6.19566 13.342 6.19566 13.7982C6.19566 14.2545 6.56552 14.6243 7.02176 14.6243ZM7.02176 15.4504C7.93423 15.4504 8.67394 14.7107 8.67394 13.7982C8.67394 12.8858 7.93423 12.1461 7.02176 12.1461C6.10928 12.1461 5.36957 12.8858 5.36957 13.7982C5.36957 14.7107 6.10928 15.4504 7.02176 15.4504Z" fill="#77777C"/>
<path d="M14.4566 13.7982C14.4566 14.7107 13.7169 15.4504 12.8044 15.4504C11.8919 15.4504 11.1522 14.7107 11.1522 13.7982C11.1522 12.8858 11.8919 12.1461 12.8044 12.1461C13.7169 12.1461 14.4566 12.8858 14.4566 13.7982Z" fill="white"/>
<path fill-rule="evenodd" clip-rule="evenodd" d="M12.8044 14.6243C13.2606 14.6243 13.6305 14.2545 13.6305 13.7982C13.6305 13.342 13.2606 12.9722 12.8044 12.9722C12.3482 12.9722 11.9783 13.342 11.9783 13.7982C11.9783 14.2545 12.3482 14.6243 12.8044 14.6243ZM12.8044 15.4504C13.7169 15.4504 14.4566 14.7107 14.4566 13.7982C14.4566 12.8858 13.7169 12.1461 12.8044 12.1461C11.8919 12.1461 11.1522 12.8858 11.1522 13.7982C11.1522 14.7107 11.8919 15.4504 12.8044 15.4504Z" fill="#77777C"/>
</svg>
