<svg width="12" height="11" viewBox="0 0 12 11" fill="none" xmlns="http://www.w3.org/2000/svg">
<path fill-rule="evenodd" clip-rule="evenodd" d="M0.5 1.07517C0.5 0.92309 0.623285 0.799805 0.775365 0.799805H2.00691C2.37944 0.799805 2.70588 1.04914 2.80389 1.40854L3.16357 2.72736H10.2921C10.8134 2.72736 11.2044 3.20428 11.1021 3.71546L10.4963 6.74447C10.4191 7.13061 10.0801 7.40856 9.68628 7.40856H3.75713C3.6841 7.40856 3.61406 7.43757 3.56242 7.48921C3.45488 7.59675 3.45488 7.7711 3.56242 7.87864C3.61406 7.93028 3.6841 7.95929 3.75713 7.95929H10.1378C10.2898 7.95929 10.4131 8.08257 10.4131 8.23465C10.4131 8.38673 10.2898 8.51002 10.1378 8.51002H3.75713C3.53804 8.51002 3.32792 8.42298 3.173 8.26806C2.85039 7.94545 2.85039 7.4224 3.173 7.09979C3.31901 6.95377 3.51407 6.86806 3.71945 6.85869L2.27257 1.55345C2.2399 1.43365 2.13108 1.35053 2.00691 1.35053H0.775365C0.623285 1.35053 0.5 1.22725 0.5 1.07517ZM4.29006 6.85783H9.68628C9.81754 6.85783 9.93055 6.76518 9.95629 6.63647L10.5621 3.60746C10.5962 3.43706 10.4658 3.27809 10.2921 3.27809H3.31377L4.29006 6.85783Z" fill="#77777C"/>
<path d="M6.28263 9.19887C6.28263 9.80719 5.78949 10.3003 5.18117 10.3003C4.57285 10.3003 4.07971 9.80719 4.07971 9.19887C4.07971 8.59055 4.57285 8.09741 5.18117 8.09741C5.78949 8.09741 6.28263 8.59055 6.28263 9.19887Z" fill="white"/>
<path fill-rule="evenodd" clip-rule="evenodd" d="M5.18117 9.7496C5.48533 9.7496 5.7319 9.50303 5.7319 9.19887C5.7319 8.89471 5.48533 8.64814 5.18117 8.64814C4.87701 8.64814 4.63044 8.89471 4.63044 9.19887C4.63044 9.50303 4.87701 9.7496 5.18117 9.7496ZM5.18117 10.3003C5.78949 10.3003 6.28263 9.80719 6.28263 9.19887C6.28263 8.59055 5.78949 8.09741 5.18117 8.09741C4.57285 8.09741 4.07971 8.59055 4.07971 9.19887C4.07971 9.80719 4.57285 10.3003 5.18117 10.3003Z" fill="#77777C"/>
<path d="M10.1377 9.19887C10.1377 9.80719 9.64459 10.3003 9.03627 10.3003C8.42795 10.3003 7.93481 9.80719 7.93481 9.19887C7.93481 8.59055 8.42795 8.09741 9.03627 8.09741C9.64459 8.09741 10.1377 8.59055 10.1377 9.19887Z" fill="white"/>
<path fill-rule="evenodd" clip-rule="evenodd" d="M9.03627 9.7496C9.34043 9.7496 9.587 9.50303 9.587 9.19887C9.587 8.89471 9.34043 8.64814 9.03627 8.64814C8.73211 8.64814 8.48554 8.89471 8.48554 9.19887C8.48554 9.50303 8.73211 9.7496 9.03627 9.7496ZM9.03627 10.3003C9.64459 10.3003 10.1377 9.80719 10.1377 9.19887C10.1377 8.59055 9.64459 8.09741 9.03627 8.09741C8.42795 8.09741 7.93481 8.59055 7.93481 9.19887C7.93481 9.80719 8.42795 10.3003 9.03627 10.3003Z" fill="#77777C"/>
</svg>
