<svg width="79" height="61" viewBox="0 0 79 61" fill="none" xmlns="http://www.w3.org/2000/svg">
<path fillRule="evenodd" clipRule="evenodd" d="M39.9999 12.0801C38.8878 12.0814 37.8217 12.5238 37.0355 13.3103C36.2493 14.0968 35.8071 15.163 35.8062 16.2751C35.8068 17.3872 36.2488 18.4537 37.0351 19.2402C37.8214 20.0268 38.8877 20.4691 39.9999 20.4701C41.1121 20.4691 42.1784 20.0268 42.9647 19.2402C43.751 18.4537 44.193 17.3872 44.1937 16.2751C44.1927 15.163 43.7505 14.0968 42.9643 13.3103C42.1781 12.5238 41.112 12.0814 39.9999 12.0801Z" fill="#77777C"/>
<path fillRule="evenodd" clipRule="evenodd" d="M40 22.8337C38.2615 22.8317 36.5947 22.1402 35.3654 20.9109C34.136 19.6815 33.4445 18.0147 33.4425 16.2762C33.4442 14.5374 34.1355 12.8703 35.3649 11.6407C36.5943 10.4111 38.2613 9.71943 40 9.71744C41.7388 9.71943 43.4057 10.4111 44.6351 11.6407C45.8645 12.8703 46.5559 14.5374 46.5575 16.2762C46.5555 18.0147 45.864 19.6815 44.6347 20.9109C43.4053 22.1402 41.7386 22.8317 40 22.8337ZM50.1413 6.41994H46.4488L45.0575 3.70869C44.8369 3.27948 44.5022 2.91939 44.0903 2.668C43.6784 2.4166 43.2051 2.28363 42.7225 2.28369H37.2063C36.7142 2.28363 36.232 2.42189 35.8147 2.6827C35.3974 2.9435 35.0618 3.31634 34.8463 3.75869L33.5513 6.41994H29.8588C29.445 6.41978 29.0353 6.50113 28.6529 6.65936C28.2706 6.81759 27.9232 7.04959 27.6306 7.34211C27.3379 7.63463 27.1058 7.98194 26.9474 8.3642C26.789 8.74646 26.7075 9.15617 26.7075 9.56994V24.0712C26.7075 24.485 26.789 24.8947 26.9474 25.2769C27.1058 25.6592 27.3379 26.0065 27.6306 26.299C27.9232 26.5915 28.2706 26.8235 28.6529 26.9818C29.0353 27.14 29.445 27.2214 29.8588 27.2212H50.1413C50.555 27.2214 50.9648 27.14 51.3471 26.9818C51.7294 26.8235 52.0768 26.5915 52.3695 26.299C52.6621 26.0065 52.8942 25.6592 53.0526 25.2769C53.211 24.8947 53.2925 24.485 53.2925 24.0712V9.56994C53.2925 9.15617 53.211 8.74646 53.0526 8.3642C52.8942 7.98194 52.6621 7.63463 52.3695 7.34211C52.0768 7.04959 51.7294 6.81759 51.3471 6.65936C50.9648 6.50113 50.555 6.41978 50.1413 6.41994Z" fill="#77777C"/>
<path d="M22.3784 41.75H23.8184V42.66H22.3784V47.54H21.3784V38.26H22.3784V41.75ZM17.4384 38.7C18.1517 38.7 18.7284 38.9567 19.1684 39.47C19.615 39.9767 19.8384 40.7567 19.8384 41.81V43.22C19.8384 44.2733 19.615 45.0567 19.1684 45.57C18.7284 46.0767 18.1517 46.33 17.4384 46.33C16.7184 46.33 16.135 46.0767 15.6884 45.57C15.2417 45.0567 15.0184 44.2733 15.0184 43.22V41.81C15.0184 40.7567 15.2417 39.9767 15.6884 39.47C16.135 38.9567 16.7184 38.7 17.4384 38.7ZM18.8484 41.82C18.8484 41.0533 18.7184 40.4933 18.4584 40.14C18.205 39.7867 17.865 39.61 17.4384 39.61C17.005 39.61 16.6584 39.7867 16.3984 40.14C16.145 40.4933 16.0184 41.0533 16.0184 41.82V43.21C16.0184 43.97 16.145 44.53 16.3984 44.89C16.6584 45.2433 17.005 45.42 17.4384 45.42C17.865 45.42 18.205 45.2433 18.4584 44.89C18.7184 44.53 18.8484 43.97 18.8484 43.21V41.82ZM32.3808 47.54H31.3808V38.26H32.3808V47.54ZM27.2508 46.33C26.5174 46.33 25.9208 46.0767 25.4608 45.57C25.0074 45.0567 24.7808 44.2733 24.7808 43.22V41.81C24.7808 40.7567 25.0074 39.9767 25.4608 39.47C25.9208 38.9567 26.5174 38.7 27.2508 38.7C27.9774 38.7 28.5674 38.9567 29.0208 39.47C29.4741 39.9767 29.7008 40.7567 29.7008 41.81V43.22C29.7008 44.2733 29.4741 45.0567 29.0208 45.57C28.5674 46.0767 27.9774 46.33 27.2508 46.33ZM27.2508 45.42C27.6908 45.42 28.0441 45.2433 28.3108 44.89C28.5774 44.53 28.7108 43.97 28.7108 43.21V41.82C28.7108 41.0533 28.5774 40.4933 28.3108 40.14C28.0441 39.7867 27.6908 39.61 27.2508 39.61C26.8041 39.61 26.4474 39.7867 26.1808 40.14C25.9141 40.4933 25.7808 41.0533 25.7808 41.82V43.21C25.7808 43.97 25.9141 44.53 26.1808 44.89C26.4541 45.2433 26.8108 45.42 27.2508 45.42ZM41.6544 40.99C41.5544 41.5033 41.281 41.8967 40.8344 42.17C40.3944 42.4433 39.8544 42.58 39.2144 42.58C38.481 42.58 37.881 42.4067 37.4144 42.06C36.9544 41.7133 36.7244 41.2167 36.7244 40.57V40.42C36.7244 39.7733 36.9544 39.2767 37.4144 38.93C37.881 38.5833 38.481 38.41 39.2144 38.41C39.8744 38.41 40.4277 38.5567 40.8744 38.85C41.3277 39.1367 41.5944 39.5567 41.6744 40.11H43.3244V38.26H44.3144V42.79H43.3244V40.99H41.6544ZM37.7244 40.55C37.7244 40.9167 37.861 41.2 38.1344 41.4C38.4077 41.6 38.7677 41.7 39.2144 41.7C39.6544 41.7 40.011 41.6 40.2844 41.4C40.5577 41.2 40.6944 40.9167 40.6944 40.55V40.44C40.6944 40.0733 40.5577 39.79 40.2844 39.59C40.011 39.39 39.6544 39.29 39.2144 39.29C38.7677 39.29 38.4077 39.39 38.1344 39.59C37.861 39.79 37.7244 40.0733 37.7244 40.44V40.55ZM39.1844 45.86V46.74H44.6644V47.59H38.1844V45.04H43.3244V44.2H38.1344V43.37H44.3144V45.86H39.1844ZM54.5668 42.26H50.7068V43.2H53.5068V45.78H47.9168V46.75H53.7468V47.59H46.9168V44.96H52.5068V44.03H46.8668V43.2H49.7168V42.26H45.8468V41.42H52.1068C52.1668 41.0467 52.2135 40.6767 52.2468 40.31C52.2868 39.9367 52.3101 39.63 52.3168 39.39H46.9168V38.51H53.3068V39.03C53.3068 39.7833 53.2368 40.58 53.0968 41.42H54.5668V42.26ZM62.7592 38.26V40.59H64.1992V41.49H62.7592V45.21H61.7592V38.26H62.7592ZM55.4992 38.75H60.0092V43.44H55.4992V38.75ZM56.4692 42.56H59.0392V39.63H56.4692V42.56ZM56.8192 44.63H57.8092V46.63H63.2392V47.54H56.8192V44.63ZM6.34328 59.15C5.85661 59.15 5.40661 59.0467 4.99328 58.84C4.58661 58.6333 4.25995 58.3267 4.01328 57.92C3.76661 57.5133 3.64328 57.0267 3.64328 56.46V55.66C3.64328 55.0933 3.76661 54.6067 4.01328 54.2C4.25995 53.7933 4.58661 53.4867 4.99328 53.28C5.40661 53.0733 5.85661 52.97 6.34328 52.97C6.90328 52.97 7.40661 53.11 7.85328 53.39C8.29995 53.67 8.61995 54.07 8.81328 54.59L7.88328 54.95C7.74328 54.6033 7.53995 54.34 7.27328 54.16C7.00661 53.98 6.69661 53.89 6.34328 53.89C6.02995 53.89 5.74328 53.96 5.48328 54.1C5.22995 54.24 5.02661 54.4467 4.87328 54.72C4.71995 54.9867 4.64328 55.31 4.64328 55.69V56.43C4.64328 56.81 4.71995 57.1367 4.87328 57.41C5.02661 57.6767 5.22995 57.88 5.48328 58.02C5.74328 58.16 6.02995 58.23 6.34328 58.23C6.69661 58.23 7.00661 58.14 7.27328 57.96C7.53995 57.78 7.74328 57.5167 7.88328 57.17L8.81328 57.53C8.61995 58.05 8.29995 58.45 7.85328 58.73C7.40661 59.01 6.90328 59.15 6.34328 59.15ZM12.5249 52.97C12.8183 52.97 13.0783 53.0133 13.3049 53.1L13.0649 54C12.8249 53.9267 12.5883 53.89 12.3549 53.89C12.1216 53.89 11.9049 53.9567 11.7049 54.09C11.5116 54.2233 11.3583 54.4133 11.2449 54.66C11.1316 54.9 11.0749 55.1733 11.0749 55.48V59H10.0749V53.12H11.0049L11.0549 54C11.2016 53.68 11.3983 53.43 11.6449 53.25C11.8983 53.0633 12.1916 52.97 12.5249 52.97ZM16.4019 59.15C15.9152 59.15 15.4652 59.0467 15.0519 58.84C14.6452 58.6333 14.3185 58.3267 14.0719 57.92C13.8252 57.5133 13.7019 57.0267 13.7019 56.46V55.66C13.7019 55.0933 13.8252 54.6067 14.0719 54.2C14.3185 53.7933 14.6452 53.4867 15.0519 53.28C15.4652 53.0733 15.9152 52.97 16.4019 52.97C16.8952 52.97 17.3452 53.0733 17.7519 53.28C18.1652 53.4867 18.4952 53.7933 18.7419 54.2C18.9885 54.6067 19.1119 55.0933 19.1119 55.66V56.46C19.1119 57.0267 18.9885 57.5133 18.7419 57.92C18.4952 58.3267 18.1652 58.6333 17.7519 58.84C17.3452 59.0467 16.8952 59.15 16.4019 59.15ZM16.4019 58.23C16.7152 58.23 16.9985 58.16 17.2519 58.02C17.5119 57.88 17.7185 57.6767 17.8719 57.41C18.0252 57.1367 18.1019 56.81 18.1019 56.43V55.69C18.1019 55.31 18.0252 54.9867 17.8719 54.72C17.7185 54.4467 17.5119 54.24 17.2519 54.1C16.9985 53.96 16.7152 53.89 16.4019 53.89C16.0885 53.89 15.8019 53.96 15.5419 54.1C15.2885 54.24 15.0852 54.4467 14.9319 54.72C14.7785 54.9867 14.7019 55.31 14.7019 55.69V56.43C14.7019 56.81 14.7785 57.1367 14.9319 57.41C15.0852 57.6767 15.2885 57.88 15.5419 58.02C15.8019 58.16 16.0885 58.23 16.4019 58.23ZM23.2667 52.97C23.6734 52.97 24.0601 53.0833 24.4267 53.31C24.8001 53.53 25.1001 53.85 25.3267 54.27C25.5601 54.6833 25.6767 55.17 25.6767 55.73V56.43C25.6767 56.99 25.5601 57.48 25.3267 57.9C25.1001 58.3133 24.8001 58.63 24.4267 58.85C24.0601 59.07 23.6734 59.18 23.2667 59.18C22.8734 59.18 22.5067 59.0967 22.1667 58.93C21.8267 58.7633 21.5434 58.52 21.3167 58.2V60.7H20.3167V53.12H21.2567L21.3067 53.97C21.5267 53.65 21.8067 53.4033 22.1467 53.23C22.4934 53.0567 22.8667 52.97 23.2667 52.97ZM24.6667 55.76C24.6667 55.1733 24.5067 54.7167 24.1867 54.39C23.8734 54.0567 23.4734 53.89 22.9867 53.89C22.6734 53.89 22.3901 53.9633 22.1367 54.11C21.8834 54.25 21.6834 54.4633 21.5367 54.75C21.3901 55.03 21.3167 55.3667 21.3167 55.76V56.4C21.3167 56.9867 21.4734 57.4467 21.7867 57.78C22.1001 58.1067 22.5001 58.27 22.9867 58.27C23.4734 58.27 23.8734 58.1067 24.1867 57.78C24.5067 57.4467 24.6667 56.9867 24.6667 56.4V55.76ZM36.0527 53.75V50.26H37.0227V59.54H36.0527V54.66H34.8727V59.35H33.9227V50.4H34.8727V53.75H36.0527ZM30.6227 50.27H31.6327V51.62H33.3027V52.52H28.9427V51.62H30.6227V50.27ZM31.1427 53.35C31.4961 53.35 31.8061 53.44 32.0727 53.62C32.3461 53.8 32.5561 54.0567 32.7027 54.39C32.8561 54.7167 32.9327 55.1 32.9327 55.54V56.08C32.9327 56.52 32.8561 56.9067 32.7027 57.24C32.5561 57.5733 32.3461 57.83 32.0727 58.01C31.8061 58.19 31.4961 58.28 31.1427 58.28C30.7827 58.28 30.4661 58.19 30.1927 58.01C29.9194 57.83 29.7061 57.5733 29.5527 57.24C29.3994 56.9067 29.3227 56.52 29.3227 56.08V55.54C29.3227 55.1 29.3994 54.7167 29.5527 54.39C29.7061 54.0567 29.9194 53.8 30.1927 53.62C30.4661 53.44 30.7827 53.35 31.1427 53.35ZM32.0127 55.61C32.0127 55.19 31.9327 54.86 31.7727 54.62C31.6127 54.3733 31.3994 54.25 31.1327 54.25C30.8661 54.25 30.6494 54.3733 30.4827 54.62C30.3227 54.86 30.2427 55.19 30.2427 55.61V56.02C30.2427 56.44 30.3227 56.7733 30.4827 57.02C30.6494 57.2667 30.8661 57.39 31.1327 57.39C31.3927 57.39 31.6027 57.2667 31.7627 57.02C31.9294 56.7733 32.0127 56.44 32.0127 56.02V55.61ZM39.0752 54.28C41.2485 53.5133 42.3352 52.6133 42.3352 51.58H39.5752V50.7H45.9752V51.58H43.3352C43.3352 51.96 43.2585 52.3067 43.1052 52.62L46.4752 54.3L46.0352 55.14L42.5752 53.4C41.9485 54.0667 40.9018 54.6467 39.4352 55.14L39.0752 54.28ZM38.4152 56.03H47.1352V56.94H43.2752V59.65H42.2852V56.94H38.4152V56.03ZM55.0176 59.54V50.26H55.9876V59.54H55.0176ZM51.5276 53.46H53.0076V50.4H53.9576V59.35H53.0076V54.37H51.5276V53.46ZM50.5876 52.03C50.5876 52.8233 50.5142 53.5667 50.3676 54.26L52.4376 57.61L51.6376 58.18L50.0176 55.54C49.6709 56.5133 49.1742 57.4267 48.5276 58.28L47.7676 57.68C48.4009 56.8333 48.8709 55.95 49.1776 55.03C49.4842 54.11 49.6376 53.11 49.6376 52.03V50.8H50.5876V52.03ZM61.02 55.71C60.4733 55.71 59.9933 55.6033 59.58 55.39C59.1667 55.17 58.8467 54.87 58.62 54.49C58.3933 54.11 58.28 53.6833 58.28 53.21C58.28 52.7433 58.3933 52.3233 58.62 51.95C58.8467 51.5767 59.1667 51.2833 59.58 51.07C59.9933 50.85 60.4733 50.74 61.02 50.74H62.47C63.0167 50.74 63.4967 50.85 63.91 51.07C64.3233 51.2833 64.6433 51.5767 64.87 51.95C65.0967 52.3233 65.21 52.7433 65.21 53.21C65.21 53.6833 65.0967 54.11 64.87 54.49C64.6433 54.87 64.3233 55.17 63.91 55.39C63.4967 55.6033 63.0167 55.71 62.47 55.71H61.02ZM61.19 51.63C60.5967 51.63 60.13 51.7767 59.79 52.07C59.45 52.3633 59.28 52.7467 59.28 53.22C59.28 53.7 59.45 54.0867 59.79 54.38C60.13 54.6733 60.5967 54.82 61.19 54.82H62.29C62.8833 54.82 63.3533 54.6733 63.7 54.38C64.0467 54.0867 64.22 53.7 64.22 53.22C64.22 52.7467 64.0467 52.3633 63.7 52.07C63.3533 51.7767 62.8833 51.63 62.29 51.63H61.19ZM63.88 56.24V57.93H66.1V58.84H57.38V57.93H59.61V56.24H60.59V57.93H62.91V56.24H63.88ZM70.4236 53.22C70.2369 53.22 70.0736 53.1533 69.9336 53.02C69.8003 52.88 69.7336 52.7167 69.7336 52.53C69.7336 52.3433 69.8003 52.1833 69.9336 52.05C70.0669 51.9167 70.2303 51.85 70.4236 51.85C70.6169 51.85 70.7769 51.9167 70.9036 52.05C71.0369 52.1767 71.1036 52.3367 71.1036 52.53C71.1036 52.7233 71.0369 52.8867 70.9036 53.02C70.7703 53.1533 70.6103 53.22 70.4236 53.22ZM70.4236 58.05C70.2369 58.05 70.0736 57.9833 69.9336 57.85C69.8003 57.71 69.7336 57.5467 69.7336 57.36C69.7336 57.1733 69.8003 57.0133 69.9336 56.88C70.0669 56.7467 70.2303 56.68 70.4236 56.68C70.6169 56.68 70.7769 56.7467 70.9036 56.88C71.0369 57.0067 71.1036 57.1667 71.1036 57.36C71.1036 57.5533 71.0369 57.7167 70.9036 57.85C70.7703 57.9833 70.6103 58.05 70.4236 58.05ZM75.0023 54.95C75.0023 55.9633 74.8123 56.92 74.4323 57.82C74.059 58.72 73.5123 59.5467 72.7923 60.3L72.1323 59.69C73.4123 58.2433 74.0523 56.6633 74.0523 54.95C74.0523 53.2367 73.4123 51.6567 72.1323 50.21L72.7923 49.6C73.5123 50.3533 74.059 51.18 74.4323 52.08C74.8123 52.98 75.0023 53.9367 75.0023 54.95Z" fill="#77777C"/>
</svg>
