<svg width="60" height="50" viewBox="0 0 60 50" fill="none" xmlns="http://www.w3.org/2000/svg">
<path fill-rule="evenodd" clip-rule="evenodd" d="M29.9999 12.0801C28.8878 12.0814 27.8217 12.5238 27.0355 13.3103C26.2493 14.0968 25.8071 15.163 25.8062 16.2751C25.8068 17.3872 26.2488 18.4537 27.0351 19.2402C27.8214 20.0268 28.8877 20.4691 29.9999 20.4701C31.1121 20.4691 32.1784 20.0268 32.9647 19.2402C33.751 18.4537 34.193 17.3872 34.1937 16.2751C34.1927 15.163 33.7505 14.0968 32.9643 13.3103C32.1781 12.5238 31.112 12.0814 29.9999 12.0801Z" fill="#77777C"/>
<path fill-rule="evenodd" clip-rule="evenodd" d="M30 22.8337C28.2615 22.8317 26.5947 22.1402 25.3654 20.9109C24.136 19.6815 23.4445 18.0147 23.4425 16.2762C23.4442 14.5374 24.1355 12.8703 25.3649 11.6407C26.5943 10.4111 28.2613 9.71943 30 9.71744C31.7388 9.71943 33.4057 10.4111 34.6351 11.6407C35.8645 12.8703 36.5559 14.5374 36.5575 16.2762C36.5555 18.0147 35.864 19.6815 34.6347 20.9109C33.4053 22.1402 31.7386 22.8317 30 22.8337M40.1413 6.41994H36.4488L35.0575 3.70869C34.8369 3.27948 34.5022 2.91939 34.0903 2.668C33.6784 2.4166 33.2051 2.28363 32.7225 2.28369H27.2063C26.7142 2.28363 26.232 2.42189 25.8147 2.6827C25.3974 2.9435 25.0618 3.31634 24.8463 3.75869L23.5513 6.41994H19.8588C19.445 6.41978 19.0353 6.50113 18.6529 6.65936C18.2706 6.81759 17.9232 7.04959 17.6306 7.34211C17.3379 7.63463 17.1058 7.98194 16.9474 8.3642C16.789 8.74646 16.7075 9.15617 16.7075 9.56994V24.0712C16.7075 24.485 16.789 24.8947 16.9474 25.2769C17.1058 25.6592 17.3379 26.0065 17.6306 26.299C17.9232 26.5915 18.2706 26.8235 18.6529 26.9818C19.0353 27.14 19.445 27.2214 19.8588 27.2212H40.1413C40.555 27.2214 40.9648 27.14 41.3471 26.9818C41.7294 26.8235 42.0768 26.5915 42.3695 26.299C42.6621 26.0065 42.8942 25.6592 43.0526 25.2769C43.211 24.8947 43.2925 24.485 43.2925 24.0712V9.56994C43.2925 9.15617 43.211 8.74646 43.0526 8.3642C42.8942 7.98194 42.6621 7.63463 42.3695 7.34211C42.0768 7.04959 41.7294 6.81759 41.3471 6.65936C40.9648 6.50113 40.555 6.41978 40.1413 6.41994" fill="#77777C"/>
<path d="M12.8784 41.75H14.3084V42.66H12.8784V47.54H11.8784V38.26H12.8784V41.75ZM8.54836 40.01C8.54836 40.79 8.45836 41.5367 8.27836 42.25L10.9184 45.55L10.1684 46.18L7.90836 43.35C7.48169 44.37 6.82169 45.3467 5.92836 46.28L5.21836 45.62C6.03169 44.7733 6.62503 43.9033 6.99836 43.01C7.37836 42.11 7.56836 41.11 7.56836 40.01V38.8H8.54836V40.01ZM21.8908 38.26H22.8808V45.21H21.8908V38.26ZM17.8308 41.96C17.3708 42.72 16.6108 43.4333 15.5508 44.1L15.0408 43.32C15.8741 42.7667 16.4874 42.2067 16.8808 41.64C17.2808 41.0667 17.4808 40.4267 17.4808 39.72V39.64H15.4008V38.75H20.5508V39.64H18.4508V39.72C18.4508 40.22 18.3774 40.6867 18.2308 41.12L20.9108 43.12L20.3708 43.9L17.8308 41.96ZM17.7408 44.63V46.63H23.2708V47.54H16.7408V44.63H17.7408ZM33.8144 38.26H34.8144V43.09H33.8144V41.09H32.1644C32.0844 41.6633 31.8177 42.1033 31.3644 42.41C30.9177 42.7167 30.3644 42.87 29.7044 42.87C28.971 42.87 28.371 42.6867 27.9044 42.32C27.4444 41.9533 27.2144 41.4267 27.2144 40.74V40.59C27.2144 39.8967 27.4444 39.37 27.9044 39.01C28.371 38.6433 28.971 38.46 29.7044 38.46C30.3577 38.46 30.9077 38.61 31.3544 38.91C31.801 39.21 32.0677 39.6433 32.1544 40.21H33.8144V38.26ZM31.1944 40.6C31.1944 40.1933 31.0544 39.8833 30.7744 39.67C30.501 39.45 30.1444 39.34 29.7044 39.34C29.2644 39.34 28.9044 39.45 28.6244 39.67C28.351 39.8833 28.2144 40.1933 28.2144 40.6V40.73C28.2144 41.13 28.351 41.44 28.6244 41.66C28.9044 41.88 29.2644 41.99 29.7044 41.99C30.1444 41.99 30.501 41.88 30.7744 41.66C31.0544 41.44 31.1944 41.13 31.1944 40.73V40.6ZM29.6744 44.64H33.8144V43.57H34.8144V47.54H28.6744V43.57H29.6744V44.64ZM29.6744 45.52V46.65H33.8144V45.52H29.6744ZM41.2068 44.19V45.93H45.0668V46.85H36.3468V45.93H40.2168V44.19H37.4168V41.09H43.0068V39.78H37.3668V38.88H44.0068V41.97H38.4168V43.31H44.1968V44.19H41.2068ZM46.8992 38.88H53.3892V39.79H47.8992V42.95H53.4892V43.86H46.8992V38.88ZM54.5492 46.85H45.8292V45.93H54.5492V46.85Z" fill="#77777C"/>
</svg>
