<svg width="8" height="16" viewBox="0 0 8 16" fill="none" xmlns="http://www.w3.org/2000/svg">
<path d="M7.92741 3.99059C7.92741 4.44174 7.83718 4.86067 7.65671 5.24737C7.48914 5.63408 7.2829 5.98211 7.03799 6.29147C6.80597 6.58795 6.5675 6.84575 6.32259 7.06488C6.07768 7.27112 5.89077 7.4258 5.76187 7.52892C5.49118 7.73516 5.28494 7.93496 5.14315 8.12831C5.00136 8.30877 4.89179 8.49568 4.81445 8.68903C4.75 8.86949 4.71133 9.06284 4.69844 9.26908C4.68555 9.47533 4.6791 9.7009 4.6791 9.94582C4.6791 10.1263 4.60821 10.3067 4.46642 10.4872C4.32463 10.6548 4.01526 10.7386 3.53833 10.7386C3.13874 10.7386 2.8616 10.6483 2.70692 10.4679C2.55224 10.2874 2.4749 9.94581 2.4749 9.4431C2.4749 9.03062 2.51357 8.6697 2.59091 8.36033C2.68114 8.03808 2.78426 7.76094 2.90027 7.52892C3.02917 7.2969 3.17096 7.0971 3.32564 6.92953C3.48033 6.76196 3.62856 6.62017 3.77035 6.50416C3.92503 6.37526 4.09905 6.23991 4.2924 6.09812C4.49864 5.94344 4.68555 5.78231 4.85312 5.61474C5.03358 5.43428 5.18182 5.24093 5.29783 5.03469C5.42673 4.81556 5.49118 4.57709 5.49118 4.31929C5.49118 3.86813 5.32361 3.53944 4.98847 3.3332C4.65332 3.11406 4.24084 3.0045 3.75102 3.0045C3.26119 3.0045 2.89383 3.08184 2.64891 3.23652C2.41689 3.3912 2.22999 3.56522 2.0882 3.75857C1.95929 3.93903 1.83684 4.1066 1.72083 4.26128C1.60482 4.41596 1.41791 4.4933 1.16011 4.4933C1.03121 4.4933 0.895862 4.47397 0.754071 4.4353C0.62517 4.38374 0.502714 4.31284 0.386703 4.22261C0.270692 4.13238 0.174016 4.02282 0.0966758 3.89392C0.0322253 3.75212 0 3.58455 0 3.3912C0 3.1334 0.0773406 2.85626 0.232022 2.55979C0.386703 2.25043 0.618725 1.96685 0.928087 1.70904C1.23745 1.45124 1.6306 1.23856 2.10753 1.07099C2.58446 0.890524 3.15163 0.800293 3.80902 0.800293C4.42775 0.800293 4.98847 0.884078 5.49118 1.05165C6.00678 1.20633 6.4386 1.42546 6.78663 1.70904C7.14756 1.99263 7.42469 2.33421 7.61805 2.73381C7.82429 3.12051 7.92741 3.53944 7.92741 3.99059ZM3.55767 12.0727C3.97015 12.0727 4.31818 12.2209 4.60176 12.5174C4.89824 12.801 5.04647 13.149 5.04647 13.5615C5.04647 13.7548 5.0078 13.9417 4.93046 14.1222C4.85312 14.3027 4.74355 14.4638 4.60176 14.6056C4.47286 14.7345 4.31818 14.8441 4.13772 14.9343C3.95726 15.0116 3.76391 15.0503 3.55767 15.0503C3.14518 15.0503 2.79715 14.9021 2.51357 14.6056C2.22999 14.3091 2.0882 13.9611 2.0882 13.5615C2.0882 13.149 2.22999 12.801 2.51357 12.5174C2.79715 12.2209 3.14518 12.0727 3.55767 12.0727Z" fill="#77777C"/>
</svg>
