<svg width="6" height="10" viewBox="0 0 6 10" fill="none" xmlns="http://www.w3.org/2000/svg">
<path d="M5.78494 2.32706C5.78494 2.62783 5.72478 2.90711 5.60448 3.16492C5.49276 3.42272 5.35527 3.65474 5.19199 3.86098C5.03731 4.05863 4.87833 4.2305 4.71506 4.37659C4.55179 4.51408 4.42718 4.6172 4.34125 4.68595C4.16079 4.82344 4.02329 4.95664 3.92877 5.08554C3.83424 5.20585 3.76119 5.33045 3.70963 5.45935C3.66667 5.57966 3.64089 5.70856 3.63229 5.84606C3.6237 5.98355 3.6194 6.13394 3.6194 6.29721C3.6194 6.41752 3.57214 6.53783 3.47761 6.65813C3.38308 6.76985 3.17684 6.8257 2.85889 6.8257C2.59249 6.8257 2.40773 6.76555 2.30461 6.64524C2.20149 6.52494 2.14993 6.29721 2.14993 5.96207C2.14993 5.68708 2.17571 5.44646 2.22727 5.24022C2.28743 5.02539 2.35617 4.84063 2.43351 4.68595C2.51945 4.53127 2.61398 4.39807 2.7171 4.28635C2.82022 4.17464 2.91904 4.08011 3.01357 4.00277C3.11669 3.91684 3.2327 3.82661 3.3616 3.73208C3.4991 3.62896 3.6237 3.52154 3.73541 3.40983C3.85572 3.28952 3.95455 3.16062 4.03189 3.02313C4.11782 2.87704 4.16079 2.71806 4.16079 2.54619C4.16079 2.24542 4.04907 2.02629 3.82564 1.8888C3.60222 1.74271 3.32723 1.66967 3.00068 1.66967C2.67413 1.66967 2.42922 1.72123 2.26594 1.82435C2.11126 1.92747 1.98666 2.04348 1.89213 2.17238C1.8062 2.29269 1.72456 2.4044 1.64722 2.50752C1.56988 2.61064 1.44527 2.6622 1.27341 2.6622C1.18747 2.6622 1.09724 2.64931 1.00271 2.62353C0.91678 2.58916 0.835142 2.5419 0.757802 2.48174C0.680461 2.42159 0.616011 2.34854 0.564451 2.26261C0.521484 2.16808 0.5 2.05637 0.5 1.92747C0.5 1.7556 0.55156 1.57084 0.654681 1.37319C0.757802 1.16695 0.912483 0.977897 1.11872 0.80603C1.32497 0.634161 1.58706 0.49237 1.90502 0.380657C2.22298 0.260349 2.60109 0.200195 3.03935 0.200195C3.45183 0.200195 3.82564 0.256052 4.16079 0.367766C4.50452 0.470887 4.7924 0.616975 5.02442 0.80603C5.26504 0.995084 5.4498 1.22281 5.5787 1.4892C5.71619 1.74701 5.78494 2.02629 5.78494 2.32706ZM2.87178 7.71512C3.14677 7.71512 3.37879 7.81394 3.56784 8.01159C3.76549 8.20065 3.86431 8.43267 3.86431 8.70766C3.86431 8.83656 3.83853 8.96116 3.78697 9.08147C3.73541 9.20178 3.66237 9.3092 3.56784 9.40372C3.48191 9.48966 3.37879 9.5627 3.25848 9.62286C3.13817 9.67442 3.00927 9.7002 2.87178 9.7002C2.59679 9.7002 2.36477 9.60137 2.17571 9.40372C1.98666 9.20607 1.89213 8.97405 1.89213 8.70766C1.89213 8.43267 1.98666 8.20065 2.17571 8.01159C2.36477 7.81394 2.59679 7.71512 2.87178 7.71512Z" fill="#77777C"/>
</svg>
