<svg width="20" height="20" viewBox="0 0 20 20" fill="none" xmlns="http://www.w3.org/2000/svg">
<path fill-rule="evenodd" clip-rule="evenodd" d="M17.2616 12.2961C17.3709 11.9763 17.1719 11.6414 16.8447 11.5569C16.5174 11.4724 16.1862 11.6705 16.0725 11.9887C15.6273 13.2338 14.8243 14.3254 13.7582 15.1225C12.528 16.0422 11.021 16.515 9.48595 16.4627C7.95088 16.4104 6.47954 15.8362 5.31481 14.835C4.15009 13.8337 3.36163 12.4651 3.07961 10.9553C2.79758 9.44546 3.03885 7.88458 3.76358 6.53036C4.48831 5.17614 5.65318 4.10953 7.06586 3.50664C8.47854 2.90375 10.0546 2.80061 11.5338 3.21426C12.8158 3.57277 13.9587 4.30089 14.8233 5.30129C15.0443 5.55701 15.4246 5.62216 15.6993 5.42521C15.974 5.22826 16.0387 4.84415 15.8213 4.58538C14.7918 3.36012 13.4137 2.46904 11.8634 2.03551C10.116 1.54687 8.25424 1.6687 6.58543 2.3809C4.91662 3.0931 3.54056 4.35309 2.68443 5.95284C1.8283 7.55259 1.54329 9.39646 1.87645 11.18C2.20961 12.9636 3.14102 14.5803 4.51691 15.7631C5.8928 16.9459 7.63091 17.6242 9.44429 17.686C11.2577 17.7477 13.0379 17.1893 14.4911 16.1028C15.7803 15.1388 16.7438 13.8104 17.2616 12.2961Z" fill="#77777C"/>
<path d="M17.6742 6.71257C17.7017 7.05752 17.412 7.34417 17.0674 7.31297L12.5198 6.90138C12.0469 6.85858 11.84 6.28254 12.1774 5.94859L16.3616 1.80847C16.6991 1.47453 17.2729 1.68758 17.3107 2.16086L17.6742 6.71257Z" fill="#77777C"/>
</svg>
