<svg width="16" height="16" viewBox="0 0 16 16" fill="none" xmlns="http://www.w3.org/2000/svg">
<path fill-rule="evenodd" clip-rule="evenodd" d="M4.00625 5.93721V1.66221H1.5125V14.4872H14.3375V4.09483L11.9049 1.66221L11.4875 1.66221V5.93721C11.4875 6.52746 11.009 7.00596 10.4188 7.00596H5.075C4.48475 7.00596 4.00625 6.52746 4.00625 5.93721ZM11.9049 0.949707C12.0938 0.949707 12.2751 1.02477 12.4087 1.15839L14.8413 3.59102C14.9749 3.72464 15.05 3.90587 15.05 4.09483V14.4872C15.05 14.8807 14.731 15.1997 14.3375 15.1997H1.5125C1.119 15.1997 0.800003 14.8807 0.800003 14.4872V1.66221C0.800003 1.2687 1.119 0.949707 1.5125 0.949707H11.9049ZM4.71875 1.66221H10.775V5.93721C10.775 6.13396 10.6155 6.29346 10.4188 6.29346H5.075C4.87825 6.29346 4.71875 6.13396 4.71875 5.93721V1.66221ZM7.925 4.86846V3.08721C7.925 2.6937 8.244 2.37471 8.6375 2.37471H9.35C9.74351 2.37471 10.0625 2.6937 10.0625 3.08721V4.86846C10.0625 5.26196 9.74351 5.58096 9.35 5.58096H8.6375C8.244 5.58096 7.925 5.26196 7.925 4.86846ZM8.6375 3.08721V4.86846H9.35V3.08721H8.6375Z" fill="#77777C"/>
<path fill-rule="evenodd" clip-rule="evenodd" d="M3.65 8.78721C3.45325 8.78721 3.29375 8.94671 3.29375 9.14346V14.4872H2.58125V9.14346C2.58125 8.5532 3.05975 8.07471 3.65 8.07471H12.2C12.7903 8.07471 13.2688 8.5532 13.2688 9.14346V14.4872H12.5563V9.14346C12.5563 8.94671 12.3968 8.78721 12.2 8.78721H3.65Z" fill="#77777C"/>
</svg>
