<svg width="12" height="14" viewBox="0 0 12 14" fill="none" xmlns="http://www.w3.org/2000/svg">
<path fillRule="evenodd" clipRule="evenodd" d="M0.285645 3.143C0.285645 2.61044 0.71737 2.17871 1.24993 2.17871H10.8928C11.4253 2.17871 11.8571 2.61044 11.8571 3.143V3.46443C11.8571 3.99699 11.4253 4.42871 10.8928 4.42871H1.24993C0.71737 4.42871 0.285645 3.99699 0.285645 3.46443V3.143ZM1.24993 2.82157C1.07241 2.82157 0.928502 2.96548 0.928502 3.143V3.46443C0.928502 3.64195 1.07241 3.78585 1.24993 3.78585H10.8928C11.0703 3.78585 11.2142 3.64195 11.2142 3.46443V3.143C11.2142 2.96548 11.0703 2.82157 10.8928 2.82157H1.24993Z" fill="#77777C"/>
<path fillRule="evenodd" clipRule="evenodd" d="M4.57172 1.21415C4.3942 1.21415 4.25029 1.35805 4.25029 1.53557V2.49986C4.25029 2.67738 4.10638 2.82129 3.92886 2.82129C3.75134 2.82129 3.60744 2.67738 3.60744 2.49986V1.53557C3.60744 1.00301 4.03916 0.571289 4.57172 0.571289H7.78601C8.31857 0.571289 8.75029 1.00301 8.75029 1.53557V2.49986C8.75029 2.67738 8.60638 2.82129 8.42886 2.82129C8.25134 2.82129 8.10744 2.67738 8.10744 2.49986V1.53557C8.10744 1.35805 7.96353 1.21415 7.78601 1.21415H4.57172ZM1.65596 3.78639C1.83303 3.77374 1.98683 3.90703 1.99948 4.0841L2.59969 12.487C2.6117 12.6553 2.75166 12.7856 2.9203 12.7856H9.43743C9.60606 12.7856 9.74603 12.6553 9.75804 12.487L10.3583 4.0841C10.3709 3.90703 10.5247 3.77374 10.7018 3.78639C10.8788 3.79904 11.0121 3.95284 10.9995 4.1299L10.3993 12.5328C10.3632 13.0375 9.94333 13.4284 9.43743 13.4284H2.9203C2.4144 13.4284 1.99451 13.0375 1.95846 12.5328L1.35825 4.1299C1.3456 3.95284 1.47889 3.79904 1.65596 3.78639ZM3.91197 5.07173C4.08925 5.0624 4.24052 5.19855 4.24985 5.37582L4.57128 11.483C4.58061 11.6602 4.44446 11.8115 4.26719 11.8208C4.08991 11.8302 3.93864 11.694 3.92931 11.5168L3.60788 5.40961C3.59855 5.23234 3.7347 5.08106 3.91197 5.07173ZM8.44576 5.07173C8.62303 5.08106 8.75918 5.23234 8.74985 5.40961L8.42842 11.5168C8.41909 11.694 8.26782 11.8302 8.09054 11.8208C7.91327 11.8115 7.77712 11.6602 7.78645 11.483L8.10788 5.37582C8.11721 5.19855 8.26848 5.0624 8.44576 5.07173ZM6.17886 5.07129C6.35638 5.07129 6.50029 5.2152 6.50029 5.39272V11.4999C6.50029 11.6774 6.35638 11.8213 6.17886 11.8213C6.00134 11.8213 5.85744 11.6774 5.85744 11.4999V5.39272C5.85744 5.2152 6.00134 5.07129 6.17886 5.07129Z" fill="#77777C"/>
</svg>
