<svg width="10" height="12" viewBox="0 0 10 12" fill="none" xmlns="http://www.w3.org/2000/svg">
<path fill-rule="evenodd" clip-rule="evenodd" d="M0.428589 2.91425C0.428589 2.4882 0.773969 2.14282 1.20002 2.14282H8.9143C9.34035 2.14282 9.68573 2.4882 9.68573 2.91425V3.17139C9.68573 3.59744 9.34035 3.94282 8.9143 3.94282H1.20002C0.773969 3.94282 0.428589 3.59744 0.428589 3.17139V2.91425ZM1.20002 2.65711C1.058 2.65711 0.942875 2.77223 0.942875 2.91425V3.17139C0.942875 3.31341 1.058 3.42854 1.20002 3.42854H8.9143C9.05632 3.42854 9.17145 3.31341 9.17145 3.17139V2.91425C9.17145 2.77223 9.05632 2.65711 8.9143 2.65711H1.20002Z" fill="#77777C"/>
<path fill-rule="evenodd" clip-rule="evenodd" d="M3.85733 1.37146C3.71531 1.37146 3.60019 1.48659 3.60019 1.62861V2.40003C3.60019 2.54205 3.48506 2.65718 3.34304 2.65718C3.20103 2.65718 3.0859 2.54205 3.0859 2.40003V1.62861C3.0859 1.20256 3.43128 0.857178 3.85733 0.857178H6.42876C6.8548 0.857178 7.20018 1.20256 7.20018 1.62861V2.40003C7.20018 2.54205 7.08506 2.65718 6.94304 2.65718C6.80103 2.65718 6.6859 2.54205 6.6859 2.40003V1.62861C6.6859 1.48659 6.57077 1.37146 6.42876 1.37146H3.85733ZM1.52472 3.42926C1.66638 3.41914 1.78941 3.52577 1.79953 3.66743L2.2797 10.3898C2.28931 10.5243 2.40128 10.6286 2.53619 10.6286H7.7499C7.8848 10.6286 7.99677 10.5243 8.00638 10.3898L8.48655 3.66743C8.49667 3.52577 8.61971 3.41914 8.76136 3.42926C8.90302 3.43938 9.00965 3.56241 8.99953 3.70407L8.51936 10.4264C8.49053 10.8301 8.15462 11.1429 7.7499 11.1429H2.53619C2.13147 11.1429 1.79556 10.8301 1.76672 10.4264L1.28655 3.70407C1.27643 3.56241 1.38307 3.43938 1.52472 3.42926ZM3.32953 4.45753C3.47135 4.45007 3.59237 4.55899 3.59983 4.70081L3.85697 9.58652C3.86444 9.72834 3.75552 9.84936 3.6137 9.85682C3.47188 9.86429 3.35086 9.75537 3.3434 9.61355L3.08626 4.72784C3.07879 4.58602 3.18771 4.465 3.32953 4.45753ZM6.95656 4.45753C7.09838 4.465 7.20729 4.58602 7.19983 4.72784L6.94269 9.61355C6.93522 9.75537 6.8142 9.86429 6.67238 9.85682C6.53056 9.84936 6.42165 9.72834 6.42911 9.58652L6.68625 4.70081C6.69372 4.55899 6.81474 4.45007 6.95656 4.45753ZM5.14304 4.45718C5.28506 4.45718 5.40018 4.5723 5.40018 4.71432V9.60004C5.40018 9.74205 5.28506 9.85718 5.14304 9.85718C5.00103 9.85718 4.8859 9.74205 4.8859 9.60004V4.71432C4.8859 4.5723 5.00103 4.45718 5.14304 4.45718Z" fill="#77777C"/>
</svg>
