<svg width="19" height="14" viewBox="0 0 19 14" fill="none" xmlns="http://www.w3.org/2000/svg">
<path fillRule="evenodd" clipRule="evenodd" d="M8.61933 5.46064V4.81476H9.53444V5.46064L16.9748 9.59417C17.4353 9.84999 17.7831 10.2691 17.9497 10.7688L17.9554 10.7861C18.1573 11.3916 18.0682 12.0563 17.7142 12.5874C17.3306 13.1627 16.6849 13.5083 15.9933 13.5083H1.83023C1.04244 13.5083 0.343041 13.0042 0.0939212 12.2569C-0.0313071 11.8812 -0.031307 11.475 0.0939212 11.0993L0.160381 10.9C0.355068 10.3159 0.761618 9.82604 1.2998 9.52705L8.61933 5.46064ZM9.07688 6.2533L1.74421 10.327C1.40618 10.5148 1.15082 10.8225 1.02853 11.1893L0.962074 11.3887C0.89946 11.5766 0.89946 11.7797 0.962074 11.9675C1.08663 12.3412 1.43633 12.5932 1.83023 12.5932H15.9933C16.3789 12.5932 16.7389 12.4005 16.9528 12.0797C17.1502 11.7837 17.1998 11.4131 17.0873 11.0755L17.0815 11.0582C16.9874 10.7757 16.7907 10.5387 16.5304 10.3941L9.07688 6.2533Z" fill="#77777C"/>
<path fillRule="evenodd" clipRule="evenodd" d="M9.3632 0.969444C8.98314 0.842757 8.56412 0.941673 8.28084 1.22495C8.16473 1.34106 8.07726 1.48261 8.02533 1.63838L7.68089 2.67171C7.60098 2.91144 7.34185 3.041 7.10212 2.96109C6.86239 2.88118 6.73282 2.62206 6.81274 2.38232L7.15718 1.34899C7.25403 1.05844 7.4172 0.794434 7.63376 0.577871C8.16214 0.0494934 8.94369 -0.135007 9.65259 0.101291L9.82991 0.160398C10.0991 0.250144 10.3438 0.401344 10.5445 0.602024C10.7452 0.802703 10.8964 1.04735 10.9861 1.31659L11.0172 1.4099C11.2707 2.17028 11.0728 3.0086 10.506 3.57536L10.4661 3.61521C10.3317 3.74964 10.1765 3.86152 10.0065 3.94653C9.71727 4.09113 9.5346 4.38671 9.5346 4.71004V5.72991C9.5346 5.98261 9.32974 6.18747 9.07704 6.18747C8.82434 6.18747 8.61948 5.98261 8.61948 5.72991V4.71004C8.61948 4.04009 8.998 3.42764 9.59722 3.12803C9.67928 3.087 9.75419 3.03301 9.81907 2.96813L9.85892 2.92827C10.1806 2.60662 10.2929 2.13083 10.149 1.69928L10.1179 1.60597C10.0731 1.47151 9.99761 1.34933 9.89739 1.24911C9.79717 1.14888 9.67499 1.07337 9.54052 1.02855L9.3632 0.969444Z" fill="#77777C"/>
<path fillRule="evenodd" clipRule="evenodd" d="M14.1098 2.5271C14.3625 2.5271 14.5674 2.73195 14.5674 2.98466V3.89977H15.4825C15.7352 3.89977 15.94 4.10462 15.94 4.35733C15.94 4.61003 15.7352 4.81488 15.4825 4.81488H14.5674V5.73C14.5674 5.9827 14.3625 6.18755 14.1098 6.18755C13.8571 6.18755 13.6522 5.9827 13.6522 5.73V4.81488H12.7371C12.4844 4.81488 12.2796 4.61003 12.2796 4.35733C12.2796 4.10462 12.4844 3.89977 12.7371 3.89977H13.6522V2.98466C13.6522 2.73195 13.8571 2.5271 14.1098 2.5271Z" fill="#77777C"/>
</svg>
