<svg width="13" height="9" viewBox="0 0 13 9" fill="none" xmlns="http://www.w3.org/2000/svg">
<path fill-rule="evenodd" clip-rule="evenodd" d="M5.74266 3.63858V3.20825H6.35235V3.63858L11.3095 6.39255C11.6163 6.56299 11.8481 6.84224 11.959 7.17518L11.9629 7.18668C12.0973 7.59008 12.038 8.03297 11.8022 8.38677C11.5466 8.77012 11.1163 9.00038 10.6556 9.00038H1.21939C0.69453 9.00038 0.228552 8.66452 0.0625753 8.16659C-0.0208584 7.91629 -0.0208584 7.64568 0.0625753 7.39538L0.106855 7.26254C0.236565 6.87341 0.507431 6.54703 0.865993 6.34783L5.74266 3.63858ZM6.0475 4.16668L1.16209 6.8808C0.936871 7.00592 0.766737 7.21092 0.685264 7.45534L0.640985 7.58818C0.599268 7.71333 0.599268 7.84864 0.640985 7.97379C0.723973 8.22275 0.956963 8.39068 1.21939 8.39068H10.6556C10.9125 8.39068 11.1524 8.2623 11.2949 8.04857C11.4264 7.85132 11.4594 7.60439 11.3845 7.37948L11.3806 7.36798C11.3179 7.17975 11.1869 7.02188 11.0134 6.92552L6.0475 4.16668Z" fill="#77777C"/>
<path fill-rule="evenodd" clip-rule="evenodd" d="M6.23818 0.645895C5.98496 0.561489 5.70579 0.627393 5.51705 0.81613C5.43969 0.893486 5.38141 0.987791 5.34682 1.09158L5.11733 1.78003C5.06409 1.93976 4.89145 2.02608 4.73172 1.97284C4.572 1.9196 4.48568 1.74695 4.53892 1.58723L4.76841 0.898772C4.83293 0.705192 4.94164 0.529294 5.08593 0.385009C5.43796 0.0329751 5.95868 -0.0899487 6.43098 0.0674853L6.54912 0.106866C6.7285 0.166659 6.8915 0.267397 7.0252 0.4011C7.15891 0.534804 7.25964 0.697801 7.31944 0.877182L7.34016 0.939349C7.50903 1.44596 7.37718 2.00449 6.99957 2.38209L6.97302 2.40865C6.88346 2.49821 6.78004 2.57275 6.66675 2.62939C6.47408 2.72573 6.35237 2.92266 6.35237 3.13808V3.81757C6.35237 3.98594 6.21588 4.12242 6.04752 4.12242C5.87916 4.12242 5.74267 3.98594 5.74267 3.81757V3.13808C5.74267 2.69172 5.99486 2.28368 6.39409 2.08406C6.44876 2.05672 6.49867 2.02075 6.5419 1.97753L6.56845 1.95097C6.78276 1.73667 6.85759 1.41967 6.76175 1.13215L6.74103 1.06999C6.71116 0.980399 6.66085 0.898995 6.59408 0.832222C6.52731 0.765448 6.4459 0.715137 6.35632 0.685275L6.23818 0.645895Z" fill="#77777C"/>
<path fill-rule="evenodd" clip-rule="evenodd" d="M9.40091 1.68359C9.56928 1.68359 9.70576 1.82008 9.70576 1.98844V2.59814H10.3155C10.4838 2.59814 10.6203 2.73463 10.6203 2.90299C10.6203 3.07135 10.4838 3.20784 10.3155 3.20784H9.70576V3.81753C9.70576 3.9859 9.56928 4.12238 9.40091 4.12238C9.23255 4.12238 9.09606 3.9859 9.09606 3.81753V3.20784H8.48637C8.318 3.20784 8.18152 3.07135 8.18152 2.90299C8.18152 2.73463 8.318 2.59814 8.48637 2.59814H9.09606V1.98844C9.09606 1.82008 9.23255 1.68359 9.40091 1.68359Z" fill="#77777C"/>
</svg>
