<svg width="13" height="10" viewBox="0 0 13 10" fill="none" xmlns="http://www.w3.org/2000/svg">
<path fill-rule="evenodd" clip-rule="evenodd" d="M5.74622 3.64592V3.21533H6.35629V3.64592L11.3165 6.40161C11.6235 6.57215 11.8554 6.85157 11.9664 7.18472L11.9703 7.19622C12.1048 7.59988 12.0455 8.04304 11.8095 8.39707C11.5537 8.78065 11.1232 9.01105 10.6622 9.01105H1.22015C0.694961 9.01105 0.228694 8.67498 0.0626141 8.17674C-0.0208714 7.92629 -0.0208714 7.65551 0.0626141 7.40505L0.106921 7.27213C0.236712 6.88276 0.507746 6.55618 0.86653 6.35686L5.74622 3.64592ZM6.05125 4.17436L1.16281 6.89016C0.937452 7.01536 0.767213 7.22049 0.685689 7.46506L0.641383 7.59798C0.59964 7.7232 0.59964 7.85859 0.641383 7.98382C0.724422 8.23294 0.957556 8.40097 1.22015 8.40097H10.6622C10.9193 8.40097 11.1593 8.27252 11.3019 8.05866C11.4334 7.86128 11.4665 7.6142 11.3915 7.38915L11.3877 7.37764C11.3249 7.1893 11.1938 7.03133 11.0202 6.93491L6.05125 4.17436Z" fill="#FFD600"/>
<path fill-rule="evenodd" clip-rule="evenodd" d="M6.24217 0.651911C5.9888 0.567453 5.70945 0.633397 5.5206 0.822251C5.44319 0.899655 5.38487 0.994019 5.35026 1.09787L5.12063 1.78675C5.06735 1.94657 4.8946 2.03295 4.73478 1.97968C4.57496 1.9264 4.48859 1.75365 4.54186 1.59383L4.77149 0.904945C4.83605 0.711245 4.94483 0.535238 5.08921 0.390863C5.44146 0.0386108 5.9625 -0.0843893 6.43509 0.0731424L6.55331 0.112547C6.7328 0.172378 6.8959 0.273178 7.02968 0.406964C7.16347 0.540751 7.26427 0.703849 7.3241 0.883342L7.34484 0.945547C7.51381 1.45247 7.38188 2.01135 7.00404 2.38919L6.97747 2.41576C6.88785 2.50538 6.78437 2.57996 6.67101 2.63664C6.47822 2.73304 6.35643 2.93009 6.35643 3.14564V3.82556C6.35643 3.99402 6.21986 4.13059 6.05139 4.13059C5.88293 4.13059 5.74636 3.99402 5.74636 3.82556V3.14564C5.74636 2.69901 5.9987 2.29071 6.39818 2.09097C6.45289 2.06362 6.50283 2.02762 6.54608 1.98437L6.57265 1.9578C6.78709 1.74336 6.86197 1.42617 6.76607 1.13847L6.74533 1.07626C6.71545 0.986623 6.66511 0.905168 6.59829 0.838353C6.53148 0.771538 6.45003 0.721196 6.36038 0.691316L6.24217 0.651911Z" fill="#FFD600"/>
<path fill-rule="evenodd" clip-rule="evenodd" d="M9.40655 1.69019C9.57502 1.69019 9.71159 1.82676 9.71159 1.99522V2.6053H10.3217C10.4901 2.6053 10.6267 2.74187 10.6267 2.91034C10.6267 3.0788 10.4901 3.21537 10.3217 3.21537H9.71159V3.82545C9.71159 3.99392 9.57502 4.13049 9.40655 4.13049C9.23808 4.13049 9.10151 3.99392 9.10151 3.82545V3.21537H8.49144C8.32297 3.21537 8.1864 3.0788 8.1864 2.91034C8.1864 2.74187 8.32297 2.6053 8.49144 2.6053H9.10151V1.99522C9.10151 1.82676 9.23808 1.69019 9.40655 1.69019Z" fill="#FFD600"/>
</svg>
