<svg width="19" height="15" viewBox="0 0 19 15" fill="none" xmlns="http://www.w3.org/2000/svg">
<path fill-rule="evenodd" clip-rule="evenodd" d="M8.61933 5.96931V5.32343H9.53444V5.96931L16.9748 10.1028C17.4353 10.3587 17.7831 10.7778 17.9497 11.2775L17.9554 11.2948C18.1573 11.9002 18.0682 12.565 17.7142 13.096C17.3306 13.6714 16.6849 14.017 15.9933 14.017H1.83023C1.04244 14.017 0.343041 13.5129 0.0939212 12.7655C-0.0313071 12.3899 -0.031307 11.9837 0.0939212 11.608L0.160381 11.4086C0.355068 10.8246 0.761618 10.3347 1.2998 10.0357L8.61933 5.96931ZM9.07688 6.76196L1.74421 10.8357C1.40618 11.0235 1.15082 11.3312 1.02853 11.698L0.962074 11.8974C0.89946 12.0852 0.89946 12.2883 0.962074 12.4762C1.08663 12.8498 1.43633 13.1019 1.83023 13.1019H15.9933C16.3789 13.1019 16.7389 12.9092 16.9528 12.5884C17.1502 12.2923 17.1998 11.9217 17.0873 11.5841L17.0815 11.5669C16.9874 11.2844 16.7907 11.0474 16.5304 10.9028L9.07688 6.76196Z" fill="#FFD600"/>
<path fill-rule="evenodd" clip-rule="evenodd" d="M9.3632 1.47811C8.98314 1.35142 8.56412 1.45034 8.28084 1.73362C8.16473 1.84973 8.07726 1.99127 8.02533 2.14705L7.68089 3.18037C7.60098 3.42011 7.34185 3.54967 7.10212 3.46976C6.86239 3.38985 6.73282 3.13072 6.81274 2.89099L7.15718 1.85766C7.25403 1.56711 7.4172 1.3031 7.63376 1.08654C8.16214 0.55816 8.94369 0.37366 9.65259 0.609958L9.82991 0.669065C10.0991 0.758811 10.3438 0.910011 10.5445 1.11069C10.7452 1.31137 10.8964 1.55602 10.9861 1.82526L11.0172 1.91856C11.2707 2.67895 11.0728 3.51727 10.506 4.08402L10.4661 4.12388C10.3317 4.25831 10.1765 4.37018 10.0065 4.4552C9.71727 4.5998 9.5346 4.89538 9.5346 5.2187V6.23858C9.5346 6.49128 9.32974 6.69613 9.07704 6.69613C8.82434 6.69613 8.61948 6.49128 8.61948 6.23858V5.2187C8.61948 4.54876 8.998 3.93631 9.59722 3.6367C9.67928 3.59567 9.75419 3.54167 9.81907 3.4768L9.85892 3.43694C10.1806 3.11528 10.2929 2.6395 10.149 2.20795L10.1179 2.11464C10.0731 1.98018 9.99761 1.858 9.89739 1.75777C9.79717 1.65755 9.67499 1.58204 9.54052 1.53722L9.3632 1.47811Z" fill="#FFD600"/>
<path fill-rule="evenodd" clip-rule="evenodd" d="M14.1098 3.03577C14.3625 3.03577 14.5674 3.24062 14.5674 3.49332V4.40844H15.4825C15.7352 4.40844 15.94 4.61329 15.94 4.86599C15.94 5.1187 15.7352 5.32355 15.4825 5.32355H14.5674V6.23866C14.5674 6.49137 14.3625 6.69622 14.1098 6.69622C13.8571 6.69622 13.6522 6.49137 13.6522 6.23866V5.32355H12.7371C12.4844 5.32355 12.2796 5.1187 12.2796 4.86599C12.2796 4.61329 12.4844 4.40844 12.7371 4.40844H13.6522V3.49332C13.6522 3.24062 13.8571 3.03577 14.1098 3.03577Z" fill="#FFD600"/>
</svg>
