<svg width="48" height="35" viewBox="0 0 48 35" fill="none" xmlns="http://www.w3.org/2000/svg">
<path d="M7.125 28.9625V25.647H8.056V34.463H7.125V29.827H6.004V34.2825H5.1015V25.78H6.004V28.9625H7.125ZM1.4725 28.6775H3.2585V26.2075H4.1325V33.038H0.608V26.2075H1.4725V28.6775ZM1.4725 29.5325V32.1735H3.2585V29.5325H1.4725ZM13.9863 27.756C13.5113 28.953 12.232 29.8777 10.1483 30.53L9.7873 29.6845C10.8323 29.3678 11.6556 28.972 12.2573 28.497C12.859 28.022 13.1851 27.5153 13.2358 26.977H9.9868V26.1125H14.1953V26.6065C14.1953 26.6952 14.189 26.8218 14.1763 26.9865H15.9813V25.647H16.9218V30.454H15.9813V29.4565H13.9768V28.687H15.9813V27.756H13.9863ZM14.9363 30.9195C15.3543 30.9195 15.7216 30.9987 16.0383 31.157C16.3613 31.309 16.6083 31.5243 16.7793 31.803C16.9566 32.0753 17.0453 32.3857 17.0453 32.734C17.0453 33.0887 16.9566 33.4022 16.7793 33.6745C16.6083 33.9532 16.3613 34.1685 16.0383 34.3205C15.7216 34.4788 15.3543 34.558 14.9363 34.558H13.0078C12.5898 34.558 12.2225 34.4788 11.9058 34.3205C11.5891 34.1685 11.3421 33.9532 11.1648 33.6745C10.9938 33.4022 10.9083 33.0887 10.9083 32.734C10.9083 32.3857 10.9938 32.0753 11.1648 31.803C11.3421 31.5243 11.5891 31.309 11.9058 31.157C12.2225 30.9987 12.5898 30.9195 13.0078 30.9195H14.9363ZM14.7843 33.703C15.2086 33.703 15.5316 33.6143 15.7533 33.437C15.9813 33.2597 16.0953 33.0253 16.0953 32.734C16.0953 32.4427 15.9813 32.2083 15.7533 32.031C15.5316 31.8537 15.2086 31.765 14.7843 31.765H13.1693C12.745 31.765 12.4188 31.8537 12.1908 32.031C11.9691 32.2083 11.8583 32.4427 11.8583 32.734C11.8583 33.0253 11.9691 33.2597 12.1908 33.437C12.4188 33.6143 12.745 33.703 13.1693 33.703H14.7843ZM27.4702 34.463V25.647H28.3917V34.463H27.4702ZM24.1547 28.8675H25.5607V25.78H26.4632V34.2825H25.5607V29.732H24.1547V28.8675ZM23.2427 27.68C23.2427 28.307 23.1794 28.9277 23.0527 29.542L25.0477 32.639L24.2972 33.1615L22.7202 30.7105C22.4225 31.5465 21.957 32.3952 21.3237 33.2565L20.6017 32.696C21.197 31.9043 21.6404 31.1095 21.9317 30.3115C22.223 29.5135 22.3687 28.6363 22.3687 27.68V27.205H20.9152V26.3405H24.7532V27.205H23.2427V27.68ZM36.3265 25.647H37.267V34.463H36.3265V30.0075H33.8755C33.5462 30.6535 33.1123 31.2647 32.574 31.841C32.0357 32.411 31.4055 32.9335 30.6835 33.4085L30.1135 32.658C31.2345 31.9423 32.0958 31.1095 32.6975 30.1595C33.3055 29.2095 33.6095 28.2595 33.6095 27.3095V27.205H30.3035V26.3405H34.5595V27.1195C34.5595 27.8162 34.4487 28.4907 34.227 29.143H36.3265V25.647ZM44.7458 29.789H47.0068V30.606H38.7228V29.789H40.9933V28.82C40.5816 28.706 40.2618 28.5255 40.0338 28.2785C39.8058 28.0315 39.6918 27.7212 39.6918 27.3475C39.6918 26.8218 39.9135 26.4228 40.3568 26.1505C40.8001 25.8782 41.405 25.742 42.1713 25.742H43.5583C44.3247 25.742 44.9295 25.8782 45.3728 26.1505C45.8162 26.4228 46.0378 26.8218 46.0378 27.3475C46.0378 27.7212 45.9238 28.0315 45.6958 28.2785C45.4742 28.5255 45.1575 28.706 44.7458 28.82V29.789ZM40.6418 27.357C40.6418 27.623 40.7875 27.8257 41.0788 27.965C41.3701 28.1043 41.7913 28.174 42.3423 28.174H43.3968C43.9415 28.174 44.3595 28.1043 44.6508 27.965C44.9485 27.8193 45.0973 27.6167 45.0973 27.357C45.0973 27.091 44.9517 26.8883 44.6603 26.749C44.369 26.6097 43.9478 26.54 43.3968 26.54H42.3423C41.7913 26.54 41.3701 26.6097 41.0788 26.749C40.7875 26.8883 40.6418 27.091 40.6418 27.357ZM41.8958 29.789H43.8433V28.953L42.8743 28.9625L41.8958 28.953V29.789ZM43.8718 31.3565C44.3342 31.3565 44.73 31.4262 45.0593 31.5655C45.395 31.6985 45.6483 31.8853 45.8193 32.126C45.9966 32.3667 46.0853 32.6422 46.0853 32.9525C46.0853 33.4275 45.889 33.8138 45.4963 34.1115C45.11 34.4092 44.5685 34.558 43.8718 34.558H41.8578C41.1611 34.558 40.6165 34.4092 40.2238 34.1115C39.8375 33.8138 39.6443 33.4275 39.6443 32.9525C39.6443 32.6422 39.7298 32.3667 39.9008 32.126C40.0781 31.8853 40.3315 31.6985 40.6608 31.5655C40.9965 31.4262 41.3955 31.3565 41.8578 31.3565H43.8718ZM43.6913 33.7315C44.179 33.7315 44.5431 33.6618 44.7838 33.5225C45.0245 33.3832 45.1448 33.19 45.1448 32.943C45.1448 32.7023 45.0245 32.5155 44.7838 32.3825C44.5431 32.2432 44.179 32.1735 43.6913 32.1735H42.0478C41.5601 32.1735 41.196 32.2432 40.9553 32.3825C40.7146 32.5155 40.5943 32.7023 40.5943 32.943C40.5943 33.19 40.7146 33.3832 40.9553 33.5225C41.196 33.6618 41.5601 33.7315 42.0478 33.7315H43.6913Z" fill="#77777C"/>
<path fill-rule="evenodd" clip-rule="evenodd" d="M24.0002 8.05322C23.2588 8.05411 22.5481 8.34906 22.0239 8.87337C21.4998 9.39768 21.205 10.1085 21.2043 10.8499C21.2048 11.5913 21.4995 12.3023 22.0237 12.8266C22.5479 13.351 23.2587 13.6459 24.0002 13.6466C24.7416 13.6459 25.4525 13.351 25.9767 12.8266C26.5009 12.3023 26.7956 11.5913 26.796 10.8499C26.7954 10.1085 26.5006 9.39768 25.9765 8.87337C25.4523 8.34906 24.7416 8.05411 24.0002 8.05322Z" fill="#77777C"/>
<path fill-rule="evenodd" clip-rule="evenodd" d="M24.0001 15.2225C22.8411 15.2211 21.7299 14.7601 20.9103 13.9406C20.0908 13.121 19.6298 12.0098 19.6284 10.8508C19.6295 9.69162 20.0904 8.58022 20.91 7.76048C21.7296 6.94074 22.8409 6.47962 24.0001 6.47829C25.1593 6.47962 26.2706 6.94074 27.0902 7.76048C27.9097 8.58022 28.3707 9.69162 28.3718 10.8508C28.3704 12.0098 27.9094 13.121 27.0899 13.9406C26.2703 14.7601 25.1591 15.2211 24.0001 15.2225M30.7609 4.27996H28.2993L27.3718 2.47246C27.2247 2.18632 27.0016 1.94626 26.727 1.77866C26.4523 1.61107 26.1368 1.52242 25.8151 1.52246H22.1376C21.8095 1.52242 21.4881 1.61459 21.2099 1.78846C20.9317 1.96233 20.708 2.2109 20.5643 2.50579L19.7009 4.27996H17.2393C16.9634 4.27985 16.6902 4.33409 16.4354 4.43957C16.1805 4.54506 15.9489 4.69973 15.7538 4.89474C15.5587 5.08976 15.4039 5.32129 15.2984 5.57613C15.1928 5.83097 15.1384 6.10411 15.1384 6.37996V16.0475C15.1384 16.3233 15.1928 16.5965 15.2984 16.8513C15.4039 17.1061 15.5587 17.3377 15.7538 17.5327C15.9489 17.7277 16.1805 17.8824 16.4354 17.9878C16.6902 18.0933 16.9634 18.1476 17.2393 18.1475H30.7609C31.0368 18.1476 31.3099 18.0933 31.5648 17.9878C31.8197 17.8824 32.0513 17.7277 32.2464 17.5327C32.4415 17.3377 32.5962 17.1061 32.7018 16.8513C32.8074 16.5965 32.8618 16.3233 32.8618 16.0475V6.37996C32.8618 6.10411 32.8074 5.83097 32.7018 5.57613C32.5962 5.32129 32.4415 5.08976 32.2464 4.89474C32.0513 4.69973 31.8197 4.54506 31.5648 4.43957C31.3099 4.33409 31.0368 4.27985 30.7609 4.27996" fill="#77777C"/>
</svg>
